<svg xmlns="http://www.w3.org/2000/svg" viewBox="0 0 180 180" aria-hidden="true">
  <rect width="180" height="180" fill="#fafafa"/>
  <g transform="translate(24 6) scale(0.84)" fill="#7b61ff">
    <path d="M131.4,56.2c-0.1,1-0.2,2-0.4,3c-0.8,4.5-5.1,7.5-9.6,6.7c-0.3-0.1-0.6-0.1-1-0.2c-2.8-0.8-5-3-5.8-5.9c-0.3-1.1-0.5-2.3-0.5-3.5c0.1-2.6-0.2-5.2-0.7-7.8c-0.4-1.5-0.3-3.1,0.3-4.6c0.7-2,2-3.6,3.8-4.6c4-2.3,9.2-0.9,11.5,3.2c0.1,0.2,0.2,0.4,0.3,0.6c0.2,0.6,0.4,1.1,0.6,1.7c0.5,2,0.8,4.1,1,6.1c0.2,1.7,0.2,3.4,0.3,5v0.1L131.4,56.2z"/>
    <path d="M86.9,141.3c4.1,0,7.6,2.8,8.4,6.8c0.7,3-0.5,6.1-2.9,8c-3.3,2.8-7,5.2-11,7.1c-5.3,2.6-11.1-1.2-11.9-6.3c-0.5-3.5,1.2-6.9,4.2-8.7c1-0.5,2.1-1.1,3.1-1.7c1.7-1,3.4-2.2,5-3.5c0.6-0.5,1.4-0.9,2.1-1.2C84.9,141.4,85.9,141.3,86.9,141.3z"/>
    <path d="M17.9,122.2c-0.1,4.7-3.9,8.4-8.6,8.4c-4-0.1-7.4-2.9-8.2-6.8c-0.3-1.5-0.6-3.1-0.8-4.6C0.1,117.4,0,115.7,0,114c0.1-1,0-2,0-3c0-2.5,1.1-4.9,3.2-6.4c1.4-1.2,3.3-1.9,5.2-1.8c3,0,5.8,1.6,7.3,4.3c0.8,1.3,1.2,2.9,1.2,4.5c-0.1,1.8,0,3.7,0.3,5.5c0.1,1.2,0.4,2.5,0.6,3.7C17.8,121.2,17.9,121.7,17.9,122.2z"/>
    <path d="M44.1,27.5c-3.2,0-6-1.8-7.4-4.6c-1.8-3.5-0.9-7.8,2.2-10.3c2.3-1.9,4.8-3.6,7.4-5c1.2-0.7,2.4-1.4,3.7-2c4.2-1.9,9.1-0.1,11,4.1c0.5,1.2,0.8,2.5,0.7,3.9c0,3.1-1.8,5.9-4.5,7.2c-2.8,1.5-5.5,3.2-8,5.1C47.8,27.1,46,27.7,44.1,27.5z"/>
    <path d="M104.6,11c2-0.2,3.9,0.4,5.5,1.6c0.5,0.4,1,0.8,1.4,1.1c2.6,2.2,4.9,4.6,7.1,7.3c1.3,1.5,2.2,3.4,2.5,5.4c0.1,0.4,0.1,0.8,0,1.2c-0.2,2.7-1.7,5.1-3.9,6.6c-3.2,2.1-7.4,1.8-10.2-0.9c-1-1-1.9-2-2.8-3.1c-1.4-1.6-2.9-3-4.5-4.3c-2-1.6-3.2-4-3.1-6.6c0-3.8,2.5-7.2,6.2-8.2c0.2-0.1,0.3-0.1,0.5-0.1C103.8,11,104.3,11,104.6,11z"/>
    <path d="M100.3,141.1c-2,0-4-0.7-5.5-2.1c-2.6-2.3-3.5-6.1-2.2-9.4c0.8-2,1.6-3.9,2.4-5.9c0.4-1.1,0.7-2.2,0.9-3.4c1-4.1,4.8-6.8,8.9-6.4c3.6,0.3,6.6,2.9,7.4,6.4c0.3,1.3,0.3,2.7,0,4c-0.9,4.2-2.3,8.3-4.1,12.1c-1,2.2-3,3.7-5.3,4.3C102,140.9,101.2,141,100.3,141.1z"/>
    <path d="M34.7,149.5c0.1,4.5-3.4,8.2-7.9,8.5c-1.9,0.2-3.7-0.4-5.3-1.5c-1-0.7-1.9-1.4-2.7-2.2c-2.5-2.2-4.7-4.6-6.8-7.2c-1.2-1.6-1.9-3.5-1.8-5.5c0.1-4.6,3.9-8.3,8.6-8.2c2.5,0.1,4.8,1.2,6.4,3.1c2,2.4,4.2,4.7,6.5,6.7c1.3,1.1,2.2,2.6,2.6,4.2C34.6,148.1,34.6,148.8,34.7,149.5z"/>
    <path d="M39.1,36.6c0,1.2-0.3,2.4-0.9,3.5c-0.8,1.8-1.5,3.6-2.1,5.5c-0.3,1-0.5,2-0.8,3c-0.7,3.2-3.4,5.7-6.6,6.2c-2.5,0.5-5.1-0.2-7-1.9c-1.4-1.2-2.3-2.8-2.7-4.6c-0.2-1-0.3-2.1-0.1-3.1c0.8-4.2,2.2-8.2,4-12.1c0.3-0.7,0.7-1.4,1.2-2c1.5-2,3.9-3.2,6.4-3.2c4.5-0.3,8.4,3.2,8.6,7.7C39.1,35.9,39.1,36.3,39.1,36.6L39.1,36.6z"/>
    <path d="M76.5,0c1.7,0.1,3.4,0.1,5,0.4c2.1,0.3,4.3,0.7,6.4,1.3c2.9,0.8,5.1,3.2,5.6,6.2c0.7,3.1-0.3,6.3-2.8,8.3c-1.2,0.9-2.5,1.5-4,1.8c-1.5,0.2-3.1,0.1-4.6-0.4c-2.4-0.5-4.9-0.7-7.3-0.7c-1,0-1.9-0.1-2.8-0.4c-4.4-1.4-6.9-6.2-5.5-10.6C67.2,3.8,68.7,2,70.7,1c1.4-0.7,3-1,4.5-1L76.5,0L76.5,0z"/>
    <path d="M55.7,64.2c0,3.7-2,7.5-6.7,8.6c-3,0.7-5.9,1.6-8.6,2.8c-4.2,2-9.2,0.1-11.1-4.1s-0.1-9.2,4.1-11.1l0,0c2.8-1.3,5.8-2.4,8.8-3.2c1.3-0.3,2.6-0.6,3.9-0.9c1.9-0.4,4,0,5.6,1.1C54.1,58.8,55.6,61.4,55.7,64.2z"/>
    <path d="M55.7,168.9c-1.9-0.3-3.8-0.3-5.7-0.5s-3.6-0.5-5.4-0.9c-1.8-0.3-3.5-1.1-4.8-2.4c-1.5-1.5-2.4-3.5-2.3-5.6c0-0.2,0-0.4,0-0.5c-0.1-2,0.6-4,2-5.5c0.7-0.8,1.5-1.4,2.4-1.8c1.8-0.9,3.9-1.2,5.8-0.7c0.7,0.1,1.4,0.3,2,0.5c2.2,0.4,4.5,0.6,6.7,0.6c2,0,3.9,0.6,5.4,1.9c3.6,2.9,4.2,8.2,1.3,11.8c-1,1.3-2.4,2.2-4,2.7C58.1,168.8,56.9,169,55.7,168.9z"/>
    <path d="M75.6,104.2c0-3.7,2.5-7,6.1-8c0.5-0.1,1.1-0.3,1.6-0.4c2.6-0.6,5.1-1.4,7.5-2.5c0.9-0.4,2-0.7,3-0.7c2.1-0.1,4.2,0.5,5.8,1.9c1.9,1.5,3,3.8,3.1,6.2c0.1,1.3-0.2,2.5-0.8,3.7c-0.9,2-2.5,3.5-4.5,4.3c-3.9,1.7-7.9,3-12,3.9c-4.3,0.8-8.4-1.8-9.6-6c-0.1-0.3-0.2-0.7-0.2-1C75.6,105.1,75.6,104.7,75.6,104.2z"/>
    <path d="M19.7,72.7c4.7,0,8.4,3.8,8.4,8.5c0,2-0.7,3.9-2,5.4c-1.9,2.3-3.6,4.8-5,7.5c-2.1,4.1-7.2,5.7-11.3,3.6S4,90.5,6.2,86.4l0,0c1.9-3.8,4.3-7.4,7-10.6C14.8,73.9,17.2,72.8,19.7,72.7z"/>
    <path d="M70.6,103.6c0,3.9-2.7,7.4-6.5,8.2c-1.3,0.3-2.7,0.3-4-0.1c-4.1-1.1-8.1-2.6-11.9-4.6c-4.2-2.2-5.7-7.4-3.5-11.5c0.2-0.3,0.4-0.6,0.6-0.9c1.2-1.7,3.1-2.9,5.2-3.3c1.6-0.4,3.2-0.2,4.7,0.5c0.8,0.4,1.6,0.8,2.4,1.1c2.2,1,4.4,1.8,6.7,2.4c2.6,0.6,4.7,2.4,5.8,4.9C70.4,101.4,70.6,102.5,70.6,103.6z"/>
    <path d="M87.5,68.3c0,4.7-2.4,7.9-6.1,8.9c-2,0.6-4.2,0.4-6.1-0.6c-2.2-1.1-4.4-2-6.7-2.7c-0.8-0.3-1.7-0.5-2.5-0.8c-4.3-1.6-6.6-6.3-5.1-10.7c1.2-3.3,4.2-5.5,7.7-5.5c1.2,0,2.3,0.2,3.5,0.5c3.7,1.1,7.3,2.5,10.7,4.3C85.6,62.9,87.3,65.4,87.5,68.3z"/>
    <path d="M125.8,78.6c0.1,1.4-0.2,2.9-0.9,4.1c-1.9,3.8-4.3,7.3-7,10.5c-3,3.5-8.3,3.9-11.9,0.9c-1.5-1.3-2.5-3-2.8-5c-0.4-2.4,0.2-4.9,1.8-6.7c1.9-2.3,3.5-4.7,4.9-7.4c0.8-1.7,2.2-3.1,3.9-3.9c4.1-2.1,9.1-0.4,11.2,3.7c0.2,0.4,0.4,0.8,0.5,1.3c0.1,0.3,0.2,0.7,0.2,1C125.8,77.6,125.8,78.1,125.8,78.6z"/>
  </g>
</svg>
