<svg xmlns="http://www.w3.org/2000/svg" enable-background="new 0 0 66 66" viewBox="0 0 66 66" id="creative-lab">
  <path fill="#010101" d="M35.186348,22.9780006c-0.6275482-0.3204918-1.3190689-0.2846699-1.8967209,0.0997925
		c-0.6576157,0.4362793-1.0615883,1.2499828-1.0056152,2.0240231c0.0495796,0.6819248,0.4522705,1.249342,1.1047707,1.5570393
		c0.2920227,0.138176,0.5773315,0.1995888,0.8476067,0.1995888c0.7801208,0,1.434536-0.5111237,1.7585449-1.171299
		C36.4430466,24.7742882,36.3093491,23.5498943,35.186348,22.9780006z M35.1127853,25.2540665
		c-0.2082253,0.4241238-0.6761703,0.8105049-1.3043594,0.51688c0,0,0,0,0-0.000639
		c-0.3371239-0.1586475-0.5203972-0.4074917-0.5443878-0.7394981c-0.0303841-0.4183655,0.2088661-0.895586,0.5690193-1.1341953
		c0.154808-0.1029911,0.315052-0.1541672,0.4797783-0.1541672c0.1397743,0,0.2824287,0.0371017,0.4273186,0.1106682
		C35.3229256,24.1499367,35.3417969,24.7877216,35.1127853,25.2540665z"></path>
  <path fill="#010101" d="M51.9213219 14.9228487C46.9415474 6.8644986 37.6258621 3.245054 28.1873493 5.7053552 18.7408428 8.166296 12.3687515 15.8721695 11.9542236 25.3372269 11.5627251 34.3263474 17.3718758 43.20224 25.7715073 46.442337l.456749.1714401c.93013.334568 1.5615177 1.1885719 1.6085358 2.1749954l.0933971 1.998436c.0143127.3640709.0422592.6804047.082201.9702682-.450552.0109558-.9016628.020153-1.3500938.0372658-.7638073.0287857-1.4057503.2993813-1.8074837.7625237-.3470402.4004555-.4980106.9269333-.4359589 1.5224953.0794029.764286.5607414 1.4939499 1.2840061 1.9911613-.3390026.1300964-.6308289.3184929-.8480473.5689354-.3470402.4004555-.4980106.9269295-.4359589 1.5231361.0937176.9000626.7433357 1.7579041 1.6948948 2.2376823.8069878.4068527 1.6945763.5194397 2.5341873.5994034.5829697.0561333 1.1668606.0937958 1.7509499.1264229.2622395 1.4213409 1.1890888 2.6793175 2.4886875 3.3273392.6461029.3217697 1.3577728.4816971 2.0691223.4816971.8204193 0 1.6402016-.2123795 2.3573074-.6339493 1.2954826-.7615662 2.1509247-2.1465263 2.2710724-3.6399155.3690262-.057972.7388153-.1097069 1.1065674-.1771965.888546-.1631241 1.8196373-.3723068 2.5722466-.9685097.7909966-.6256332 1.3321838-1.8026886.8367348-2.8402863-.2564011-.5373535-.6778488-.854805-1.1473885-1.0431976.1039505-.0654106.2123795-.1205826.3106537-.1984673.7909966-.6262703 1.3325043-1.8026848.8367348-2.8402863-.5194817-1.0882149-1.7463531-1.3222694-2.8204155-1.339859.0947571-.7606087.0195122-1.6352425-.2354507-2.6173477H41.044117c-.0025558-.0102386-.0051155-.0198326-.008316-.0300674-.2622757-1.1054077.3265686-2.2792664 1.3769646-2.7379341 3.0581017-1.3510551 5.7400627-3.3539658 7.7554474-5.7912369C55.9133949 33.157608 56.6509743 22.578825 51.9213219 14.9228487zM43.2139931 57.0991669c.2610016.5463066-.0796432 1.266613-.559742 1.646595-.5760498.4561119-1.3731232.6313896-2.1401291.7727623-3.8846016.7119904-7.8450089.8827934-11.7724686.5034485-.7468548-.0710068-1.5304928-.1682434-2.1852283-.49897-.5143223-.259079-1.0890961-.7791595-1.1601028-1.4617233-.0342255-.328167.0313454-.5821304.2008667-.7772408.2184582-.2520409.6201916-.4068489 1.1022091-.4254036.2427673-.0089531.4580288-.009594.6771259-.0108719.1775188-.0006409.357275-.0019188.5546246-.0063972.0064373-.0001602.0117149-.0036812.0180702-.004158.2346916.032383.468504.0588531.6987171.0809212 1.3891182.1336975 2.7814331.2002258 4.1734295.2002258 2.6368599 0 5.2711601-.2392464 7.8702774-.716465.0528526-.009758.1065102-.0223923.1596451-.0324669C41.8819313 56.3292007 42.8742294 56.3884544 43.2139931 57.0991669zM49.4108047 39.4516525c-1.9184723 2.3195686-4.4756889 4.2284431-7.3930588 5.5174484-1.486351.6480179-2.3170052 2.3202057-1.9322243 3.8887596h.0006409c.0031967.0134315.0070343.0275078.0115128.0409393.2338142.9071007.2987442 1.7195244.1922302 2.376503l-3.3923492.1463318-1.9625702.0836411-.0557327-6.2220802c1.771019-.2854691 3.3737984-1.6737862 4.1357231-3.2637711 1.0027351-2.1071815.9493217-4.5278244.9023018-6.6650734l-.3310471-13.8463917c-.0009995-.0427799-.0160294-.080761-.0272675-.1201038.1534119-.0494175.3060989-.1031513.4539528-.174799 1.0187263-.4925709 1.8218765-1.7003326 1.4025497-2.8677921-.2299728-.6403446-.8248978-1.1668205-1.5919037-1.4073486-.6307487-.1976681-1.2701302-.1944695-1.8813705-.1951103-.0003166 0-.0307045 0-.0310249 0-5.131382.0166321-8.0973701.1580067-9.0678005.4324398-.856245.2424488-1.7070503 1.0158501-1.6763458 2.0240231.0230293.7503738.5578232 1.464283 1.3625698 1.8180389.3470001.1521702.7083931.2293339 1.0649471.2737942-.0897579 2.3747406-.154768 4.7069397-.1927109 6.9337502-.0572529 2.9048939-.0793228 5.9217396-.0655689 8.9673672.0063972 1.4271812.0137539 3.0443535.5370312 4.573246.5968437 1.7259178 1.8225155 3.0072479 3.2800808 3.4281731.2479248.0710068.4960098.1069908.743576.1277809l.0557365 6.2256775-2.8543606.121624c-.6981564.0300636-1.3989925.0452576-2.0990677.0611687-.0439796-.2836266-.0724468-.6049194-.0874405-.9849014l-.0937157-2.0029144c-.0658894-1.3849564-.9518795-2.5837631-2.2511177-3.0507469l-.4461937-.1676025c-8.0135708-3.0910492-13.5588446-11.5632858-13.184618-20.1436348.3950176-9.0243034 6.4789219-16.3738613 15.4987469-18.7241325 1.8784904-.4893737 3.7505817-.7267036 5.582056-.7267036 6.9551811 0 13.3099976 3.4281731 17.0682602 9.510478 4.5150299 7.3073368 3.8110352 17.4057026-1.6737862 24.0106449C49.4114456 39.4510155 49.4111252 39.4510155 49.4108047 39.4516525zM32.3246346 39.5540085c-.0415802-.5731773.2731514-1.2013664.7654037-1.5282555.1660042-.1100273.3937378-.2117424.6694527-.2117424.1771965 0 .3742256.0422211.5869293.1503334.8018684.4087677.8316116 1.2787666.5197563 1.9139938-.2843475.5795708-.9237328 1.1111641-1.7914886.7023926 0 0 0 0 0-.0006371C32.4967155 40.307579 32.3476639 39.8712997 32.3246346 39.5540085zM37.4515419 34.279007c-.4183655.8514481-1.3360214 1.4751587-2.4459076.9518814-.7903557-.3735886-.9941025-.9742699-1.0257645-1.4118271-.0559769-.7714844.3671875-1.6171722 1.0286407-2.0560074.3755074-.249485.9793892-.465065 1.7256012-.0850811C37.8299255 32.2364349 37.8740654 33.4179688 37.4515419 34.279007zM38.8151894 30.3790531c-1.1917267-.4858551-2.4601402-.554142-3.6873741-.6195526l-.1400948-.0076771c-1.1853714-.0639687-2.4283142-.1714401-3.4585571-.715189-.4447956-.230772-.8506069-.5856476-1.1410332-.9817848.0379028-2.1556416.1009541-4.4056396.1873131-6.6968994l6.4743652.2453251c.2427673.0095959.5012054.0191917.7689209.0191917.2558823 0 .520401-.0155125.7860794-.0425396L38.8151894 30.3790531zM37.0869102 20.6219711l-6.5316963-.2475662c-.5635796-.0217495-1.1466694-.0441399-1.6306057-.2565212-.3764668-.1656837-.7625275-.5232773-.7756405-.9486809-.0143948-.4816971.4778576-.9109383.9621143-1.0484753.5987625-.1695213 2.6119099-.3755054 8.8032856-.3953362h.0303841c.5370331-.0025597 1.0983734-.0025597 1.584549.1503296.4752998.1490517.8348122.4484329.9611549.8015499.2222977.6185932-.288826 1.3529739-.9055023 1.6517143C38.8416176 20.6884995 37.9092484 20.6533165 37.0869102 20.6219711zM34.9598961 3.16765c.0118332 0 .0239868-.0006399.03582-.0012796.2705956-.019191.4743423-.254602.4548302-.5251968l-.0802803-1.121401c-.0191917-.269955-.2539635-.4663441-.5251999-.4548295-.2705917.0191911-.4743385.2546022-.4548264.5251969L34.47052 2.7115409C34.4890709 2.9699814 34.7046509 3.16765 34.9598961 3.16765zM20.4891529 7.4677396c.1113091 0 .2229366-.0377426.3150539-.1145072.2079048-.1739993.2354107-.4842558.0614109-.6921597l-.94804-1.1329155c-.1743202-.2079039-.4839363-.2347713-.6921597-.0614114-.2079048.1739993-.2354107.4842558-.0614109.6921592l.94804 1.132916C20.2092819 7.4076071 20.3487377 7.4677396 20.4891529 7.4677396zM10.3594418 19.3022614c-.0006399 0-.0012789 0-.0019188 0l-1.5224953.0057564c-.2712345.0012798-.4903336.2219772-.4893742.4932117.0009604.2705956.2206984.4893742.491293.4893742.0006399 0 .0012798 0 .0019188 0l1.5224953-.0057564c.2712345-.0012798.4903336-.2219772.4893742-.4932117C10.8497753 19.52104 10.6300364 19.3022614 10.3594418 19.3022614zM11.2335968 39.2104874c.0678091 0 .1365776-.0140762.2021465-.0435028l1.7646236-.7970695c.2472458-.1113091.3572741-.4023743.2456465-.6499405-.1116285-.2469254-.4026937-.3563156-.6499395-.2456436l-1.7652626.7970695c-.2472458.1119499-.3569546.4030151-.2450066.6505775C10.8676863 39.1030159 11.046484 39.2104874 11.2335968 39.2104874z"></path>
  <path fill="#010101" d="M20.1888123 45.6810913l-.8012295.801548c-.1915913.1919098-.1915913.5034485.000639.6947174.0956364.0959587.2213383.1439362.3470402.1439362s.2517242-.0479774.3476791-.1439362l.8012295-.801548c.1915913-.1919098.1915913-.5034447-.0006409-.6947174C20.6922588 45.4891777 20.380724 45.4891777 20.1888123 45.6810913zM47.9318085 6.8504252l1.0024185-1.0024161c.1919098-.1919112.1919098-.5028071 0-.6947184-.1919136-.1919112-.5028076-.1919112-.6947212 0l-1.0024147 1.0024161c-.1919098.1912713-.1919098.5028071-.0003204.6947184.0959549.0959554.2219772.1439333.3476791.1439333S47.8358536 6.9463806 47.9318085 6.8504252zM57.6380386 17.2935905c-.0687714-.2622776-.3374443-.4196453-.6000443-.3505573l-2.1161385.5565434c-.2622795.069088-.4190063.3377628-.3499184.6000423.0578918.2206974.2568398.3665485.474659.3665485.0412598 0 .0834808-.0051174.1253815-.0159912l2.1161423-.5565434C57.550396 17.8245449 57.7071266 17.5558701 57.6380386 17.2935905zM56.4232407 36.3036728c.0901985.0703659.1970291.1049118.3035393.1049118.1455307 0 .289463-.0639725.3863792-.1874352.167923-.2130203.1311417-.5219994-.0822029-.690239l-1.2442207-.9781075c-.2143021-.1663246-.5226402-.1305008-.6899223.0825195-.167923.2136612-.1308212.5219994.0825233.6902428L56.4232407 36.3036728zM47.0275879 44.8980942c-.1775169.2053452-.154808.5156021.0505371.6927986l1.3165092 1.1367531c.0930786.0806046.2072639.1196251.3208122.1196251.1378555 0 .275074-.0575752.3723068-.1701622.1772003-.2053452.1544914-.5156021-.0508537-.6927986l-1.3165131-1.1367531C47.5147247 44.6690788 47.2047882 44.6921082 47.0275879 44.8980942z"></path>
</svg>
