<svg id="Layer_1" data-name="Layer 1" xmlns="http://www.w3.org/2000/svg" viewBox="0 0 379.94 96.54"><defs><style>.cls-1{fill:#bea730;fill-rule:evenodd;}.cls-2{isolation:isolate;font-size:57.57px;fill:#09332d;font-family:Poppins-BoldItalic, Poppins;font-weight:700;font-style:italic;}.cls-3{fill:#fff;}</style></defs><title>palremit-o</title><path class="cls-1" d="M61.37,5.43c2,.24,4,.36,5.91.73C84.23,9.37,93,21.61,94.57,35.07,96,47.19,91.35,57,81.91,64.6a30.56,30.56,0,0,1-19.43,6.88c-6.25,0-12.49.17-18.74.12a9.93,9.93,0,0,1-10.07-9.24c-.5-4.43,2.84-9.26,7.19-10.18a30.37,30.37,0,0,1,5.79-.64c4.86,0,9.73.05,14.6.08A13.13,13.13,0,0,0,74.33,35.36c-1.21-5.32-5-8.64-10.41-9.41a96.92,96.92,0,0,0-11.45-.44c-3.21-.07-6.44.13-9.64-.1A9.51,9.51,0,0,1,33.76,16,9.72,9.72,0,0,1,42.22,5.7c.33-.06.65-.18,1-.27H61.37Z" transform="translate(-9.66 -5.43)"/><path class="cls-1" d="M57,5.43h0Z" transform="translate(-9.66 -5.43)"/><path class="cls-1" d="M9.87,90.3c0-.3-.06-.49-.06-.68C9.75,80.73,9.65,71.84,9.66,63A35,35,0,0,1,13.13,47,33.54,33.54,0,0,1,22.89,35.2a32.67,32.67,0,0,1,19.57-6.61q10-.22,20.11.14c4.51.16,8,3.91,8.6,8.61.53,4.25-2.16,9-6.1,10.31a17.37,17.37,0,0,1-5.09.74c-4.94.09-9.89,0-14.83,0a27.52,27.52,0,0,0-5.58.57c-4.46,1-8.66,4.32-9.54,11.17a103.24,103.24,0,0,0-.34,14.92,38,38,0,0,1-.38,7.77,9.11,9.11,0,0,1-8.8,7.4c-3.33.17-6.66.1-10,.13A5.73,5.73,0,0,1,9.87,90.3Z" transform="translate(-9.66 -5.43)"/><text class="cls-2" transform="translate(94.37 61.66)">PalRemit</text><path class="cls-3" d="M383.85,39.56l-2-3.31h-1.47v3.31h-.79V31.64H382a2.85,2.85,0,0,1,2,.63,2.17,2.17,0,0,1,.69,1.67,2.27,2.27,0,0,1-.49,1.47,2.4,2.4,0,0,1-1.46.79l2,3.36Zm-3.43-4H382a2,2,0,0,0,1.4-.46,1.79,1.79,0,0,0,0-2.42A2.05,2.05,0,0,0,382,32.3h-1.59Z" transform="translate(-9.66 -5.43)"/><path class="cls-3" d="M382.05,43.6a7.55,7.55,0,1,1,7.55-7.55A7.56,7.56,0,0,1,382.05,43.6Zm0-14.39a6.84,6.84,0,1,0,6.84,6.84A6.85,6.85,0,0,0,382.05,29.21Z" transform="translate(-9.66 -5.43)"/></svg>