<?xml version="1.0" encoding="utf-8"?>
<!-- Generator: Adobe Illustrator 24.0.2, SVG Export Plug-In . SVG Version: 6.00 Build 0)  -->
<svg version="1.1" id="Layer_1" xmlns="http://www.w3.org/2000/svg" xmlns:xlink="http://www.w3.org/1999/xlink" x="0px" y="0px"
	 viewBox="0 0 379.9 96.5" style="enable-background:new 0 0 379.9 96.5;" xml:space="preserve">
<style type="text/css">
	.st0{fill-rule:evenodd;clip-rule:evenodd;fill:#BEA730;}
	.st1{enable-background:new    ;}
	.st2{fill:#09332D;}
	.st3{fill:#FFFFFF;}
</style>
<title>palremit-o</title>
<path class="st0" d="M51.7,0c2,0.2,4,0.4,5.9,0.7c17,3.2,25.7,15.5,27.3,28.9c1.4,12.1-3.2,21.9-12.7,29.5
	c-5.5,4.5-12.4,6.9-19.4,6.9c-6.2,0-12.5,0.2-18.7,0.1c-5.3,0.1-9.7-4-10.1-9.2c-0.5-4.4,2.8-9.3,7.2-10.2c1.9-0.4,3.8-0.6,5.8-0.6
	c4.9,0,9.7,0,14.6,0.1c7.2,0.2,13.3-5.5,13.5-12.8c0-1.2-0.1-2.3-0.4-3.5c-1.2-5.3-5-8.6-10.4-9.4c-3.8-0.4-7.6-0.5-11.5-0.4
	c-3.2-0.1-6.4,0.1-9.6-0.1c-5-0.2-9-4.4-9.1-9.4c-0.3-5.1,3.4-9.6,8.5-10.3c0.3-0.1,0.7-0.2,1-0.3H51.7z"/>
<path class="st0" d="M47.3,0L47.3,0z"/>
<path class="st0" d="M0.2,84.9c0-0.3-0.1-0.5-0.1-0.7C0.1,75.3,0,66.4,0,57.6c-0.1-5.5,1.1-11,3.5-16c2.3-4.6,5.6-8.7,9.8-11.8
	c5.6-4.3,12.5-6.6,19.6-6.6c6.7-0.1,13.4-0.1,20.1,0.1c4.5,0.2,8,3.9,8.6,8.6c0.5,4.3-2.2,9-6.1,10.3C53.8,42.7,52,43,50.3,43
	c-4.9,0.1-9.9,0-14.8,0c-1.9,0-3.7,0.2-5.6,0.6c-4.5,1-8.7,4.3-9.5,11.2c-0.5,5-0.6,9.9-0.3,14.9c0.1,2.6,0,5.2-0.4,7.8
	c-0.8,4.2-4.5,7.3-8.8,7.4c-3.3,0.2-6.7,0.1-10,0.1C0.6,84.9,0.4,84.9,0.2,84.9z"/>
<g class="st1">
	<path class="st2" d="M127.9,40.7c-1.4,1.9-3.3,3.5-5.8,4.7c-2.4,1.2-5.3,1.8-8.6,1.8h-6.1l-2.6,14.5H95l7.1-40.4h15.9
		c4.2,0,7.4,0.9,9.6,2.8c2.1,1.9,3.2,4.4,3.2,7.6c0,1-0.1,1.8-0.2,2.6C130.3,36.6,129.4,38.7,127.9,40.7z M120.6,34.3
		c0.1-0.6,0.1-1.1,0.1-1.3c0-1.2-0.4-2.2-1.2-2.8c-0.8-0.7-2-1-3.6-1h-5.4l-1.8,10.4h5.3C117.8,39.4,120,37.7,120.6,34.3z"/>
	<path class="st2" d="M135.2,36.8c1.7-2.5,3.7-4.4,6.1-5.8c2.4-1.3,4.9-2,7.5-2c2.3,0,4.2,0.5,5.7,1.4c1.5,0.9,2.6,2.1,3.3,3.6
		l0.8-4.5h9.8l-5.7,32.1H153l0.9-4.5c-1.2,1.5-2.8,2.7-4.7,3.6c-1.9,0.9-4,1.4-6.2,1.4c-2.3,0-4.3-0.5-6-1.6c-1.7-1-3.1-2.5-4.1-4.4
		c-1-1.9-1.4-4.1-1.4-6.7c0-1.2,0.1-2.5,0.3-3.9C132.4,42.2,133.6,39.3,135.2,36.8z M156.1,43.7c0-1.9-0.5-3.4-1.6-4.4
		c-1.1-1.1-2.5-1.6-4.2-1.6c-2,0-3.7,0.7-5.4,2.1c-1.6,1.4-2.6,3.3-3.1,5.8c-0.1,0.7-0.2,1.3-0.2,1.9c0,1.9,0.5,3.4,1.6,4.5
		s2.5,1.6,4.1,1.6c2,0,3.7-0.7,5.4-2.1c1.6-1.4,2.6-3.4,3.1-5.8C156,44.9,156.1,44.3,156.1,43.7z"/>
	<path class="st2" d="M187.4,19.1l-7.5,42.6H170l7.5-42.6H187.4z"/>
	<path class="st2" d="M220.2,24.1c2.2,1.9,3.3,4.4,3.3,7.4c0,0.9-0.1,1.7-0.2,2.5c-0.5,2.7-1.6,5.1-3.5,7.2
		c-1.9,2.1-4.4,3.6-7.5,4.5l6.5,16h-11.1l-5.7-15.3h-2.4l-2.7,15.3H187l7.1-40.4h16.5C214.8,21.2,218,22.2,220.2,24.1z M213.3,33.2
		c0-1.2-0.4-2.2-1.2-2.8c-0.8-0.7-1.9-1-3.5-1h-6.1l-1.8,10.1h6.1c1.8,0,3.2-0.4,4.3-1.3c1.1-0.9,1.7-2.1,2-3.7
		C213.3,33.8,213.3,33.4,213.3,33.2z"/>
	<path class="st2" d="M254.4,32.4c2.4,2.2,3.7,5.3,3.7,9.2c0,1.3-0.1,2.4-0.3,3.4c-0.2,0.9-0.4,1.8-0.7,2.8h-22.3
		c0,0.2-0.1,0.6-0.1,1.1c0,1.7,0.5,3,1.4,3.9c0.9,0.9,2.1,1.3,3.7,1.3c2.5,0,4.3-1,5.6-3.1H256c-1.4,3.3-3.6,5.9-6.7,8
		s-6.6,3.1-10.5,3.1c-4.1,0-7.5-1.2-9.9-3.5c-2.5-2.3-3.7-5.4-3.7-9.4c0-1.2,0.1-2.4,0.3-3.7c0.6-3.3,1.8-6.3,3.6-8.8
		c1.8-2.5,4-4.4,6.7-5.8c2.7-1.3,5.6-2,8.8-2C248.7,29.1,252,30.2,254.4,32.4z M248.3,41.7c0-1.5-0.5-2.7-1.4-3.5
		c-1-0.8-2.2-1.2-3.8-1.2c-1.7,0-3.2,0.5-4.5,1.5c-1.3,1-2.2,2.5-2.8,4.3h12.4C248.2,42.3,248.3,41.9,248.3,41.7z"/>
	<path class="st2" d="M314.8,31.9c1.9,1.8,2.9,4.4,2.9,7.6c0,1-0.1,2.1-0.3,3.3l-3.3,18.8h-9.8l3.1-17.4c0.1-0.4,0.1-0.9,0.1-1.6
		c0-1.6-0.5-2.8-1.4-3.7c-0.9-0.8-2.2-1.3-3.8-1.3c-1.9,0-3.5,0.6-4.8,1.7c-1.3,1.1-2.1,2.7-2.5,4.8l-3.1,17.4h-9.8l3.1-17.4
		c0.1-0.4,0.1-0.9,0.1-1.6c0-1.6-0.5-2.8-1.4-3.7c-0.9-0.8-2.2-1.3-3.8-1.3c-1.9,0-3.5,0.6-4.8,1.7c-1.3,1.1-2.1,2.7-2.5,4.8v-0.3
		l-3.1,17.7H260l5.6-32.1h9.8l-0.7,4.1c1.2-1.4,2.7-2.5,4.5-3.3c1.7-0.8,3.6-1.2,5.7-1.2c2.5,0,4.5,0.5,6.2,1.6
		c1.7,1,2.9,2.5,3.7,4.5c1.4-1.8,3.2-3.3,5.3-4.4c2.1-1.1,4.3-1.7,6.6-1.7C310.2,29.2,312.9,30.1,314.8,31.9z"/>
	<path class="st2" d="M336.4,29.5l-5.6,32.1H321l5.6-32.1H336.4z M328.5,25c-0.9-0.8-1.4-1.9-1.4-3.1c0-1.7,0.7-3.2,2-4.4
		c1.3-1.2,3-1.8,4.9-1.8c1.5,0,2.7,0.4,3.6,1.2c0.9,0.8,1.3,1.9,1.3,3.2c0,1.7-0.7,3.1-2,4.4c-1.3,1.2-3,1.8-4.8,1.8
		C330.7,26.2,329.4,25.8,328.5,25z"/>
	<path class="st2" d="M351.3,50.6c0,0.2-0.1,0.4-0.1,0.7c0,0.7,0.2,1.2,0.6,1.5c0.4,0.3,1.1,0.5,2,0.5h3.5l-1.5,8.3h-5
		c-6.4,0-9.7-2.7-9.7-8.1c0-0.8,0.1-1.8,0.3-3.1l2.3-12.8h-3.9l1.4-8.2h3.9l1.4-7.8h9.8l-1.4,7.8h6.4l-1.4,8.2h-6.4L351.3,50.6z"/>
</g>
<path class="st3" d="M374.2,34.1l-2-3.3h-1.5v3.3h-0.8v-7.9h2.4c0.7-0.1,1.4,0.2,2,0.6c0.5,0.4,0.7,1,0.7,1.7c0,0.5-0.2,1.1-0.5,1.5
	c-0.4,0.4-0.9,0.7-1.5,0.8l2,3.4H374.2z M370.8,30.1h1.6c0.5,0,1-0.1,1.4-0.5c0.6-0.7,0.6-1.7,0-2.4c-0.4-0.3-0.9-0.4-1.4-0.4h-1.6
	L370.8,30.1z"/>
<path class="st3" d="M372.4,38.2c-4.2,0-7.6-3.4-7.6-7.5s3.4-7.6,7.5-7.6c4.2,0,7.6,3.4,7.6,7.5c0,0,0,0,0,0
	C379.9,34.8,376.6,38.2,372.4,38.2z M372.4,23.8c-3.8,0-6.8,3.1-6.8,6.8s3.1,6.8,6.8,6.8c3.8,0,6.8-3.1,6.8-6.8v0
	C379.2,26.8,376.2,23.8,372.4,23.8z"/>
</svg>
