<?xml version="1.0" encoding="utf-8"?>
<!-- Generator: Adobe Illustrator 24.0.2, SVG Export Plug-In . SVG Version: 6.00 Build 0)  -->
<svg version="1.1" id="Layer_1" xmlns="http://www.w3.org/2000/svg" xmlns:xlink="http://www.w3.org/1999/xlink" x="0px" y="0px"
	 viewBox="0 0 167.9 263.5" style="enable-background:new 0 0 167.9 263.5;" xml:space="preserve">
<style type="text/css">
	.st0{fill:#BED46A;}
	.st1{fill:#AEBA25;}
	.st2{fill:#87A447;}
	.st3{fill:#121212;}
	.st4{fill:#9BC43B;}
	.st5{fill:#8BBB25;}
	.st6{fill:#727B26;}
	.st7{fill:#6F9939;}
	.st8{fill:#FFFFFF;}
</style>
<symbol  id="syncco" viewBox="-120.1 -189.8 240.2 379.6">
	<path class="st0" d="M-59.7,90.9H69.9c12.4,0,22.5-10.1,22.5-22.5v-98.1c0-12.4-10.1-22.5-22.5-22.5H-59.7
		c-12.4,0-22.5,10.1-22.5,22.5v98.1C-82.2,80.9-72.2,90.9-59.7,90.9z"/>
	<path class="st1" d="M-59.7,24.8h51.2C3.9,24.8,14,14.7,14,2.3v-51.2C14-61.3,3.9-71.4-8.5-71.4h-51.2c-12.4,0-22.5,10.1-22.5,22.5
		V2.3C-82.2,14.7-72.2,24.8-59.7,24.8z"/>
	<path class="st2" d="M-101,78.4h47.7c10.6,0,19.1-8.6,19.1-19.1V11.5c0-10.6-8.6-19.1-19.1-19.1H-101c-10.6,0-19.1,8.6-19.1,19.1
		v47.7C-120.1,69.8-111.5,78.4-101,78.4z"/>
	<path class="st0" d="M-86.2,143.8h47.7c10.6,0,19.1-8.6,19.1-19.1V77c0-10.6-8.6-19.1-19.1-19.1h-47.7c-10.6,0-19.1,8.6-19.1,19.1
		v47.7C-105.3,135.2-96.7,143.8-86.2,143.8z"/>
	<path class="st0" d="M-27.3,189.8h40.4c6.6,0,11.9-5.3,11.9-11.9v-29.4c0-6.6-5.3-11.9-11.9-11.9h-40.4c-6.6,0-11.9,5.3-11.9,11.9
		v29.4C-39.2,184.5-33.9,189.8-27.3,189.8z"/>
	<path class="st3" d="M-1.1-99c-0.5-10-0.5-10,9.4-10c25.6,0,51.2-0.1,76.8,0.1c4.3,0,6.6-1.6,7.2-5.5c0.5-3.5-2.5-5.6-7.3-5.6
		c-23.6,0-47.2,0-70.9,0c-1.6,0-3.2,0-6.1,0c9.5-7.1,18.2-13.5,26.7-20c2.5-1.9,4.8-3.8,7.2-5.8c2.9-2.3,3.2-5.4,1.1-8.1
		c-2.2-2.8-5.4-2.8-8.3-0.7c-8.1,6-16.1,12.1-24.1,18.1c-3.7,2.8-7.5,5.5-11.9,8.8c0-6,0-11,0-16.1c0-3.3,2.8-4.5,4.9-6.2
		c5.9-4.8,11.9-9.6,17.9-14.4c2.9-2.4,3.1-5.3,0.9-8.2c-2-2.7-4.6-3.6-7.6-1.1c-5.2,4.1-10.4,8.2-16.2,12.6c0-7.9-0.2-15.5,0.1-23
		c0.2-4.2-1.9-5.7-5.5-5.8c-3.8-0.1-5.6,2-5.6,5.7c0,7.5,0,15,0,22.9c-4.3-2.1-7.3-5.4-10.8-8.1c-1.2-0.9-1.9-2.1-3.4-2.8
		c-3.1-1.3-6.1-1.8-8.3,1.4c-2.2,3.1-1.1,5.9,1.5,8c6,5,12.1,9.9,18.3,14.7c1.6,1.3,2.9,2.3,2.9,4.7c-0.2,5-0.1,9.9-0.1,15.9
		c-5.3-4-10.1-7.5-14.8-11c-6.4-4.7-12.8-9.4-19.1-14.2c-3.5-2.6-6.5-2.3-8.9,1.1c-2.3,3.2-1.2,5.8,1.9,8.1
		c9.3,6.8,18.5,13.7,27.6,20.7c0.7,0.6,1.4,1.3,2.7,2.7c-4.7,0-8.4,0-12.1,0c-23,0-45.9,0-68.9,0c-3.8,0-6.3,0.6-6.4,5.3
		c-0.1,5,2.8,5.7,6.6,5.7c28.3,0,56.6,0,84.8,0c6.6,0,6.6,0,6.5,6.5c0,1.2-0.1,2.3-0.1,3.5c-0.1,1.1,0.6,1.5,1.4,1.9
		c2.8,0.7,5.7,0.7,8.5,0C-1.7-97.4-1-97.9-1.1-99z"/>
	<path class="st4" d="M13.7,55c-1.8-0.1-3.6-0.2-5.5-0.2c-10.9,0-10.9,0-10.4,11c5.2,0,10.5,0,15.7,0C13.7,62.2,13.7,58.6,13.7,55z"
		/>
	<path class="st5" d="M-11.4,65.9c-4.5,0-8.9-0.1-13.4-0.1c-10.1,0-18.1,6-21.4,15.8c10.6,0,21.2,0,31.8,0.2c2.3,0,3.2-0.6,3.1-3
		C-11.4,74.5-11.4,70.2-11.4,65.9z"/>
	<path class="st5" d="M-29.8,172.3h68.1c10.6,0,19.1-8.6,19.1-19.1V85c0-10.6-8.6-19.1-19.1-19.1h-68.1c-10.6,0-19.1,8.6-19.1,19.1
		v68.1C-48.9,163.7-40.3,172.3-29.8,172.3z"/>
	<path class="st6" d="M-27.6-23.3h41.1c10.6,0,19.1-8.6,19.1-19.1v-37.4C32.5-90.4,24-99,13.4-99h-41.1c-10.6,0-19.1,8.6-19.1,19.1
		v37.4C-46.8-31.9-38.2-23.3-27.6-23.3z"/>
	<path class="st7" d="M32.9,127H101c10.6,0,19.1-8.6,19.1-19.1V39.8c0-10.6-8.6-19.1-19.1-19.1H32.9c-10.6,0-19.1,8.6-19.1,19.1
		v68.1C13.7,118.4,22.3,127,32.9,127z"/>
	<path class="st8" d="M64.1,60.1c-3.9,0-7.3-2.1-9.2-5.3H-1V99c2.9,1.9,4.9,5.2,4.9,8.9c0,5.8-4.7,10.6-10.6,10.6
		c-5.8,0-10.6-4.7-10.6-10.6c0-3.8,2-7.1,4.9-8.9v-8H-50c-1.8,3.2-5.2,5.3-9.2,5.3c-5.8,0-10.6-4.7-10.6-10.6
		c0-5.8,4.7-10.6,10.6-10.6c3.9,0,7.3,2.1,9.2,5.3h37.8V26.5h-52.8v-0.2c-1.9,2.9-5.2,4.9-8.9,4.9c-5.8,0-10.6-4.7-10.6-10.6
		S-79.9,10-74,10c4.2,0,7.8,2.4,9.5,5.9h52.3V-98.8H-1v72.7h37.5c1.8-3.2,5.2-5.3,9.2-5.3c5.8,0,10.6,4.7,10.6,10.6
		s-4.7,10.6-10.6,10.6c-3.9,0-7.3-2.1-9.2-5.3H-1v59.8h55.8c1.8-3.2,5.2-5.3,9.2-5.3c5.8,0,10.6,4.7,10.6,10.6
		C74.6,55.4,69.9,60.1,64.1,60.1z"/>
</symbol>
<use xlink:href="#syncco"  width="240.2" height="379.6" id="XMLID_1_" x="-120.1" y="-189.8" transform="matrix(0.6847 0 0 -0.6847 82.2334 133.5372)" style="overflow:visible;"/>
</svg>
