<svg xmlns="http://www.w3.org/2000/svg" enable-background="new 0 0 66 66" viewBox="0 0 66 66" id="rocket">
  <path fill="#010101" d="M58.042305,59.0099487c0-0.0006409,0.0140724-0.0658913,0.0140724-0.0671692
		c0.4938545-2.3835373,0.0403023-4.8022575-1.2455025-6.6362877c-1.3971138-1.9913979-3.7729721-3.1562996-6.0503197-2.9682274
		c-1.3432159,0.1109085-2.5946388,0.7051125-3.5390015,1.5938225c-1.2198334-3.0739365-5.1419411-5.1163521-8.2875214-5.1692886
		c-0.1594467-1.6126938-0.0692482-3.2460976,0.2782707-4.8161697c0.2447662,0.0578918,0.4924889,0.0940361,0.7398148,0.0940361
		c0.0006409,0,0.0011215-0.0001602,0.0016022-0.0001602c0.0007973,0,0.0015182,0.0001602,0.0022392,0.0001602
		c0.8540039,0,1.6945724-0.3358421,2.3278809-0.957634c0.0023193-0.0022392,0.0043983-0.0044785,0.0067177-0.0067177
		c0.0000801-0.0001602,0.0002403-0.0001602,0.0003204-0.0003204c0.0035172-0.0033607,0.0067139-0.006958,0.0102348-0.0103951
		c0.3467178-0.3406448,0.6838417-0.6860847,1.0148888-1.0343208c0.0386238-0.0406227,0.078125-0.0806847,0.1165848-0.1213837
		c1.0049782,1.6412392,2.1098251,2.9481544,3.3662834,3.9756775c1.7265625,1.4143867,4.1817436,2.6406975,6.6695518,2.6406975
		c0.8699989,0,1.7438354-0.1496887,2.5920792-0.4938507c0.2354126-0.0959549,0.3588753-0.3550339,0.2853088-0.5981216
		c-0.4030113-1.3286667-0.8117828-2.6592484-1.2186356-3.9847183l-0.4113274-1.3401794
		c-0.5443878-1.7815742-1.1610641-3.8011208-2.402729-5.4643478c-0.8386536-1.0988541-1.9245491-1.9725285-3.1466255-2.5814457
		c1.2810898-2.3625069,2.2424049-4.8034573,2.8491631-7.2776718c2.0144272-8.2534599-0.1362572-17.1107998-5.4790649-22.5636349
		c-0.0607719-0.0620513-0.1669617-0.1151468-0.2501221-0.1381761c-0.0786858-0.0223897-0.1612053-0.0243087-0.2405281-0.0057573
		c-7.4359207,1.695855-14.0312653,7.9835048-16.8018246,16.0188255c-0.8205795,2.3891335-1.3296242,4.9394741-1.5332909,7.5950451
		c-1.4613228-0.2085438-2.9838982-0.0542965-4.3455868,0.4530697c-1.9395828,0.7247849-3.5503578,2.0899124-4.9692211,3.2925549
		c-0.8712769,0.7299023-1.739994,1.464283-2.6099911,2.1999416l-1.6517162,1.3951931
		c-0.1951094,0.163765-0.2315722,0.4503517-0.0850801,0.6582565c1.7176046,2.4366341,4.7702723,3.2880783,7.4781389,3.2880783
		c0.5072842,0,1.0024147-0.0294266,1.4745178-0.0844421c1.695694-0.2000656,3.418417-0.7418938,5.2465305-1.6461983
		c0.0233498,0.1285019,0.0452595,0.2569237,0.0698071,0.3855019c0.0844421,0.4413986,0.1756001,0.8837509,0.2751541,1.3270683
		c0.0071964,0.0323029,0.0127125,0.0645294,0.019989,0.0967522c0.0004005,0.0016022,0.0010395,0.0030403,0.00144,0.0046387
		c0.0004005,0.0018387,0.0007191,0.0036812,0.0011196,0.0056c0.2462864,1.0854149,1.0124912,1.9615707,2.0241833,2.35355
		c0.0839615,0.0326233,0.1664829,0.0682869,0.2538013,0.093956l0.6363468,0.1869545
		c-1.0591908,2.4980431-2.4895687,4.8703842-4.2135696,7.0000381c-4.0232582-1.0181694-7.3129349,1.8201981-8.5458851,5.2226219
		c-0.9435635-0.8848686-2.191864-1.4764366-3.5317249-1.5871048c-2.2671099-0.1874313-4.652566,0.9761887-6.0496798,2.9682274
		c-1.2858043,1.8340302-1.739994,4.2527504-1.2455029,6.6382065c0,0.0006409,0.0134335,0.0652504,0.0134335,0.0652504
		c0.7375789,3.4326515,3.9335399,5.9242935,7.5990424,5.9242935h34.5216217c0.0647697,0,0.1260223-0.0140686,0.1826363-0.0369415
		c0.056694,0.0228729,0.1178665,0.0369415,0.1826363,0.0369415C54.1087646,64.9342422,57.3047256,62.4426003,58.042305,59.0099487z
		 M48.7007103,31.9082527c1.1028481,0.542469,2.0745583,1.3420982,2.8281288,2.3291626
		c1.136116,1.5218544,1.7265625,3.4537621,2.2472801,5.1592102l0.4113312,1.3414612
		c0.3614311,1.1757736,0.7235031,2.3553886,1.0823784,3.5343628c-2.782074,0.8712769-5.9306946-0.5763741-7.848526-2.1468468
		c-1.2302322-1.0064926-2.3109322-2.3064499-3.2970352-3.9674416c0.0622101-0.0692482,0.1213837-0.1397781,0.1829567-0.209343
		c0.1026726-0.1159477,0.2042236-0.2323723,0.3052979-0.3491211c0.220459-0.254921,0.4363594-0.5116005,0.6486588-0.7698822
		c0.0638123-0.0772438,0.1313019-0.1532097,0.1944695-0.2309341c0.0319862-0.0395012,0.0612526-0.0801239,0.0932388-0.1197853
		c0.2403679-0.2993011,0.4741783-0.6010818,0.7033539-0.904541c0.0472565-0.0625305,0.0981941-0.123703,0.1448936-0.1863136
		c0.0012779-0.0015984,0.0011177-0.0037575,0.0023193-0.0053558c0.026947-0.0362244,0.0539742-0.0723686,0.080761-0.1085892
		c0.1443329-0.1944695,0.2813911-0.3907814,0.420845-0.586689c0.1709633-0.2405281,0.3383255-0.4821777,0.5022469-0.7250252
		c0.1572075-0.2327728,0.3146553-0.4651451,0.4649048-0.6995964c0.2359734-0.3676682,0.4625092-0.7382164,0.6824837-1.110527
		C48.5987587,32.0706558,48.6535301,31.9902954,48.7007103,31.9082527z M30.172966,17.4164009
		c2.6311035-7.6297483,8.8311119-13.6154575,15.8409882-15.3209076c4.979454,5.2308588,6.9599762,13.6192951,5.0472641,21.4569473
		c-0.6469002,2.6376591-1.7131271,5.2384548-3.1521416,7.7444153c-0.2139816,0.3750267-0.4391556,0.747654-0.6713715,1.1188431
		c-0.1452904,0.2319717-0.2933807,0.462986-0.4452324,0.6930389c-0.2284546,0.3461609-0.4644241,0.6904793-0.7083931,1.0325623
		c-0.0912361,0.1282578-0.1823959,0.2563591-0.275631,0.3838997l-17.1509418-5.0379066
		c-0.0124741-0.2072639-0.0231094-0.4140472-0.0319843-0.6203518c-0.0150337-0.3408031-0.0231895-0.6799259-0.0282269-1.0182495
		c-0.0053577-0.3735867-0.0045586-0.7453346,0.0019188-1.115324c0.0058365-0.3217716,0.0152721-0.6424217,0.0304661-0.9613152
		C28.7649784,22.8364525,29.2771416,20.0255928,30.172966,17.4164009z M22.8873787,34.9187012
		c-2.4622211,0.285305-5.8897533-0.1983109-7.7615271-2.4372749l1.2941198-1.0932522
		c0.8693581-0.7343807,1.7367973-1.4681206,2.6093521-2.1986618c1.3593712-1.1527481,2.9004173-2.4590225,4.6794338-3.1236744
		c1.2301521-0.4580288,2.609993-0.594286,3.9309807-0.3934193c-0.0063171,0.1301804-0.0035973,0.2630787-0.0084763,0.3937378
		c-0.0079956,0.2218189-0.0105553,0.4451542-0.0143929,0.6681709c-0.0086365,0.4887352-0.0076771,0.9796276,0.0043983,1.4738789
		c0.0053577,0.2222157,0.0119152,0.4445934,0.0212708,0.6678505c0.0121536,0.2823486,0.0243073,0.5642986,0.0431786,0.8480072
		c0.0034389,0.0540543,0.0067978,0.1080303,0.0104752,0.1622448c0.0001602,0.0027981-0.0015984,0.0052776-0.0014381,0.0081558
		c0.0076752,0.1101093,0.0212688,0.2216587,0.0299053,0.3320065c0.0243092,0.3107357,0.0495777,0.6217117,0.081562,0.9341278
		c0.0081577,0.0773239,0.0146332,0.1543293,0.0232697,0.2317333c0.0126343,0.1156254,0.0302258,0.232132,0.0438995,0.3479977
		c0.0377426,0.3212929,0.0791645,0.6430626,0.1250629,0.9659538c0.0230293,0.1613655,0.0466976,0.3224907,0.0716457,0.4840965
		c0.0023994,0.0157509,0.0045586,0.0315056,0.0070381,0.0472565C26.2513409,34.1723251,24.5501289,34.72295,22.8873787,34.9187012z
		 M50.443264,63.9516602c-0.0647697,0-0.1259422,0.0140724-0.1826363,0.0369415
		c-0.0566139-0.0228691-0.1178665-0.0369415-0.1826363-0.0369415H15.5563717c-3.2055559,0-5.9972239-2.1647568-6.6375675-5.1438599
		l-0.0134335-0.0646095c-0.4330797-2.0879936-0.025588-4.2834587,1.0887756-5.8724823
		c1.2000847-1.7124863,3.2279463-2.7117043,5.1643295-2.5536957c2.0061111,0.1663208,3.8324661,1.6888161,4.2489128,3.5414009
		c0.059494,0.2648354,0.3256092,0.4324379,0.5866089,0.371666c0.2648373-0.0594902,0.43116-0.3217697,0.3716679-0.5866089
		c-0.153368-0.6836014-0.4555492-1.3228264-0.8656788-1.8909645c0.0271873-0.0396614,0.050457-0.08284,0.0654087-0.1311378
		c0.7483749-2.4100838,3.2776031-5.7305489,7.040741-5.0781288c-0.4840946,0.5543022-0.9816246,1.0960503-1.5047436,1.6102943
		c-0.1938286,0.1906319-0.1963882,0.5015259-0.0063953,0.6947174c0.0965939,0.0978737,0.2232552,0.1471329,0.3505573,0.1471329
		c0.1241016,0,0.2488441-0.0466995,0.3441601-0.1407356c0.7332611-0.720787,1.430378-1.4821129,2.0883141-2.2773476
		c0.0061569-0.0068741,0.0113544-0.0142326,0.0171108-0.0215874c1.8908062-2.2895012,3.4485645-4.8625488,4.5857182-7.5737762
		l5.7842026,1.6992149c-0.4074097,1.812439-0.4888954,3.7050056-0.2616386,5.5635033
		c-0.0003204,0.0106354-0.0053596,0.0198326-0.0049591,0.0307083c0.0011215,0.0255852,0.013195,0.0478973,0.0181541,0.0726051
		c0.2983398,2.321804,1.0731812,4.5845985,2.2988548,6.5560036c0.0927582,0.1503334,0.2533226,0.2322159,0.4177246,0.2322159
		c0.0882797,0,0.1778374-0.0236702,0.2584419-0.0742073c0.2309341-0.1432953,0.3013-0.4458733,0.1580086-0.6761665
		c-1.0589523-1.7036934-1.7608681-3.638958-2.0854378-5.6357918c2.9004173,0.1400948,6.512825,2.1091042,7.3700294,4.8713455
		c0.0150337,0.0482979,0.0383034,0.0914764,0.0654907,0.1311378c-0.4101295,0.5681381-0.7122307,1.2073631-0.8657608,1.8909645
		c-0.0594902,0.2648392,0.1068306,0.5271187,0.3716698,0.5866089c0.2597198,0.0601311,0.5271149-0.1068306,0.5866089-0.371666
		c0.4164467-1.8525848,2.2428017-3.3750801,4.2489128-3.5414009c1.9440575-0.1567268,3.9648819,0.8424873,5.1649666,2.5536957
		c1.1143646,1.5896645,1.5212173,3.7844887,1.0753441,5.9332542C56.4404869,61.7869034,53.648819,63.9516602,50.443264,63.9516602z"></path>
  <path fill="#010101" d="M39.6783257 19.1851826c.8124237.4612255 1.7457504.6998348 2.6809998.6998348.4273224 0 .8552856-.0498962 1.2723694-.1516094 2.1481285-.51688 3.9002762-2.4916458 4.1657524-4.6947861.2897873-2.3406763-.8386497-5.1195507-4.0115814-6.0522385-3.0270805-.8885489-5.3946228 1.0497541-6.3944817 3.3629227C36.3320351 14.7641888 37.3798714 17.8948994 39.6783257 19.1851826zM43.4615364 10.9259653c-.0063972.2712345-.2162209.4893732-.5028076.4797783-.8041077-.0179119-1.6043777.3268881-2.1410904.9250116-.5373497.5981226-.7957916 1.4310179-.6915207 2.2280884.0358238.2693157-.1535263.5156012-.4228439.5507851-.0217476.0031986-.043499.0044785-.0646095.0044785-.2430878 0-.4541893-.1797571-.4861755-.4273224-.1420135-1.0779009.2079048-2.2037802.9346085-3.0123653.7254257-.8079462 1.7943687-1.2717314 2.8946609-1.2512617C43.2529907 10.4295549 43.4679337 10.6547308 43.4615364 10.9259653zM27.5265102 15.1141071c.1912727 0 .3729477-.111949.4522724-.2993822 1.3401794-3.1582174 3.3411732-6.1002159 5.7867622-8.5080614.1931877-.189992.1957474-.5015278.0051155-.6947184-.1906319-.1925507-.5015259-.1970286-.6947174-.0051174-2.5364265 2.4967642-4.6116257 5.548152-6.0017033 8.8240757-.1061897.2494841.0108757.5379906.2603607.6441813C27.3972912 15.1019526 27.4625416 15.1141071 27.5265102 15.1141071zM35.9757195 4.411221l.4912949-.5917261c.1733589-.2085435.1445732-.5181601-.0639725-.6921597-.2098236-.17272-.5187988-.1452127-.6921577.0639703l-.4912949.5917261c-.1733589.2085435-.1445732.5188.0639725.6921599.0921173.0761247.2034264.1132274.3140945.1132274C35.7383881 4.588419 35.8784866 4.5282869 35.9757195 4.411221zM15.6190634 52.1382484c-1.5525618-.2558823-3.1799688.4477921-4.0525246 1.7566261-.8725557 1.308197-.8987837 3.0827332-.0639706 4.4165154.0933971.1484108.2533226.2302933.4170876.2302933.0889187 0 .1791162-.0243073.2603588-.0748444.2296543-.1439323.2993813-.4471512.155448-.6774445-.6230717-.9953804-.60324-2.3726616.0486174-3.3494911.6512194-.9768295 1.9159136-1.5269737 3.0737772-1.3318634.2686758.0428581.5207195-.1362572.5654984-.4042931C16.0674953 52.4363518 15.8864594 52.1830292 15.6190634 52.1382484zM53.4901733 53.3057098c-.939724-.6096382-2.1647568-.5258369-2.8505211.1989479-.1861534.1970253-.1778374.5079231.0191917.6947174.1976662.1861534.508564.1784782.6947174-.0191917.3934174-.4177284 1.1380348-.352478 1.6005402-.0505371.4868126.3166542.861042.8751144 1.1437912 1.706089.2462845.7228661.4676208 1.7886124.1215439 2.7571259-.249485.6972771-.7989922 1.2998772-1.4706802 1.6120529s-1.4860344.344799-2.1807518.0850792c-.2520409-.0940361-.5367126.0351868-.6320267.2891464-.094677.2539635.0345421.5367126.2891464.6320305.4266815.1592865.878315.2379684 1.3293037.2379684.5520668 0 1.1034889-.1183434 1.6082153-.3531151.9186172-.4266853 1.6408424-1.2186356 1.9818039-2.1730766.3492775-.9774666.3089752-2.1545219-.1164284-3.403862C54.6717072 54.4718895 54.1688995 53.7477417 53.4901733 53.3057098z"></path>
</svg>
