<svg xmlns="http://www.w3.org/2000/svg" enable-background="new 0 0 66 66" viewBox="0 0 66 66" id="solar-system">
  <path fill="#010101" d="M49.6494255,26.6036453c-3.5202904-7.1621246-13.0518799-12.0034037-21.244566-10.7898855
		c-3.7918453,0.555583-7.5987225,2.6171885-10.7685757,5.8001146c-1.1514664-0.6616936-2.5267496-0.9877815-3.793643-0.8027477
		c-2.3381176,0.3454399-4.5748425,2.7104263-4.7862644,5.0600586c-0.1941509,2.1591606,0.9907408,4.3768539,2.8599958,5.4613113
		c-0.1987476,0.782196-0.347559,1.5695152-0.4172869,2.3481941c-0.7369385,8.2067604,4.1622334,16.6636467,11.6496477,20.1090889
		c2.5290699,1.161705,5.3479233,1.7374382,8.1994038,1.7374382c3.2665672,0,6.5727196-0.7634087,9.5362663-2.261116
		c0.4506721,0.4454765,0.9703522,0.8186646,1.5469246,1.0840607c0.724144,0.3326454,1.5180168,0.4932098,2.3147659,0.4932098
		c1.5343323,0,3.0785751-0.5942841,4.1497612-1.6932945c1.6277275-1.6689873,2.0630455-4.3998833,1.0350418-6.4929962
		c-0.222538-0.4529076-0.5333939-0.8704758-0.9023018-1.2459831C52.2481041,39.5722809,52.4980278,32.4043999,49.6494255,26.6036453
		z M10.0351229,25.9594631c0.1714411-1.9056778,2.0547295-3.8957958,3.9514513-4.1759872
		c0.1909513-0.0281467,0.3860607-0.0422192,0.5834093-0.0422192c1.0628681,0,2.1813498,0.4008541,3.0627031,1.042078
		c0.0482178,0.0350227,0.0964756,0.0698071,0.1430531,0.1061897c0.1289005,0.1007538,0.2504044,0.2077446,0.3665104,0.3187332
		c0.0373821,0.0358238,0.0766048,0.0705261,0.1123886,0.1073093c0.1169853,0.1196251,0.223177,0.2458076,0.3230495,0.3751869
		c0.0253887,0.0329456,0.0547752,0.0643711,0.0788841,0.0977955c0.1191845,0.1649628,0.2254562,0.3359241,0.3126545,0.5134411
		c0.8508072,1.731678,0.4903336,3.9917526-0.8565636,5.3735123c-1.3475361,1.3811207-3.5980139,1.7988472-5.3501625,0.9921818
		C11.0090723,29.8616581,9.8620834,27.881134,10.0351229,25.9594631z M40.2272263,52.5046158
		c-5.2468491,2.5703316-11.5773602,2.7315369-16.6681232,0.3921394
		c-7.1221428-3.2765656-11.7823858-11.3214798-11.0812702-19.1277847c0.0598116-0.6691322,0.17208-1.3465767,0.3345642-2.0201874
		c0.0193911,0.0067177,0.0399818,0.0092773,0.059453,0.0158329c0.2158203,0.0724468,0.4359579,0.1305008,0.6591349,0.1752796
		c0.0790033,0.0158329,0.1586866,0.0245476,0.2383299,0.0369434c0.1615648,0.0252666,0.3235302,0.0447788,0.4868946,0.0562916
		c0.0892382,0.0061569,0.1777973,0.0113564,0.2673559,0.0135155c0.0479774,0.0011978,0.0956354,0.0072746,0.1436539,0.0072746
		c0.1430531,0,0.2859869-0.0103951,0.4288015-0.0206299c0.0466585-0.0033569,0.0931969-0.0022392,0.1397753-0.0067139
		c0.2312126-0.0220718,0.4602671-0.0612526,0.687561-0.1096306c0.0736866-0.0157528,0.1458931-0.0347042,0.2189789-0.053175
		c0.1757183-0.04422,0.3486786-0.0964355,0.5195599-0.1562481c0.0611706-0.021431,0.1227436-0.040062,0.1831551-0.0634918
		c0.2195377-0.084919,0.4336796-0.1822357,0.6409435-0.2928238c0.049696-0.0265484,0.0963955-0.0574131,0.1452923-0.0853996
		c0.1635246-0.0935574,0.3216114-0.1949501,0.4746609-0.3046589c0.0586128-0.0419006,0.116785-0.0835629,0.1737194-0.127861
		c0.1794758-0.1396961,0.352356-0.2876282,0.512682-0.4500313c0.008316-0.0083961,0.0183125-0.0147934,0.0265484-0.0232697
		c1.6267662-1.6696281,2.0608063-4.4011631,1.0324821-6.4942741c-0.0176315-0.035984-0.0411015-0.0697289-0.0597725-0.1053905
		c-0.0526161-0.0996342-0.1067505-0.1986294-0.1673222-0.2949047c-0.0470181-0.0752449-0.0993938-0.1479321-0.1511707-0.2211781
		c-0.038023-0.0534153-0.0758839-0.1066704-0.1162663-0.1588058c-0.0642891-0.0836411-0.1314583-0.1653633-0.2018661-0.2458057
		c-0.0282669-0.0321445-0.0576935-0.0634918-0.0867996-0.0949955c-0.186554-0.2031059-0.3858624-0.3990154-0.6094379-0.5786133
		c2.9938145-2.9579906,6.5576038-4.8623886,10.0894089-5.3799095c7.8040695-1.1521063,16.8734703,3.4435253,20.2194405,10.251255
		c2.6368599,5.3696747,2.4311943,12.2599258-0.491291,17.7172394c-0.2627182-0.1901512-0.5444298-0.3547173-0.8342552-0.5028076
		c-0.0092735-0.0047989-0.0183525-0.0099144-0.027668-0.0147133c-0.1177444-0.059494-0.2368088-0.1144257-0.3577118-0.1665649
		c-0.0391426-0.0169487-0.0784454-0.0330238-0.1178665-0.0492554c-0.1108284-0.0452576-0.2214966-0.0893173-0.3342056-0.1281815
		c-0.0590935-0.0206299-0.1190643-0.0376625-0.1786766-0.0565338c-0.1419754-0.0445404-0.2841492-0.0849991-0.4277229-0.1192245
		c-0.1138268-0.0275078-0.2277336-0.0538139-0.3423615-0.074604c-0.0660095-0.011837-0.1316185-0.0200729-0.197628-0.0296669
		c-0.1111069-0.0163116-0.2220573-0.0300674-0.3332863-0.0398216c-0.0623322-0.0054359-0.1241417-0.0099144-0.1862335-0.013195
		c-0.1221848-0.0066376-0.2437668-0.008316-0.3652306-0.0066376c-0.0482178,0.000721-0.0965538-0.0003166-0.144413,0.0017624
		c-0.1703224,0.0071144-0.3397217,0.0203094-0.5068855,0.0447769c-2.3384361,0.3460808-4.5748444,2.7110672-4.7862663,5.0600586
		c-0.0139923,0.1557693-0.0196304,0.3118553-0.0195084,0.4677849c0.0000381,0.0546112,0.0041161,0.1093063,0.0058365,0.1640015
		c0.0032768,0.1029129,0.0073967,0.2057457,0.016552,0.3083382c0.0055161,0.0620499,0.0139122,0.1238632,0.0215912,0.1859131
		c0.0117531,0.0951576,0.0249863,0.1899948,0.0416183,0.2845078c0.0115166,0.0655708,0.0246315,0.1305809,0.0384636,0.1959114
		c0.0189896,0.0891571,0.0402222,0.1776772,0.0634499,0.2659569c0.0179939,0.0687675,0.0361023,0.1370544,0.0566559,0.2053452
		c0.0244675,0.080761,0.0520134,0.1605644,0.0799217,0.2402878c0.0257072,0.0738068,0.0503349,0.1476936,0.0789642,0.2206192
		c0.0243073,0.0614891,0.0522537,0.1214638,0.0785637,0.1821556c0.1356544,0.314415,0.29842,0.6177139,0.4872131,0.90662
		c0.0268288,0.0410995,0.0526543,0.0826797,0.0804825,0.1230621C40.1870041,52.4414444,40.2053185,52.4740715,40.2272263,52.5046158
		z M48.1921806,52.4643135c-1.3472176,1.3817635-3.5976944,1.7994881-5.3501625,0.9928207
		c-0.6153946-0.2831497-1.1499481-0.7165489-1.5851059-1.2356682c-0.0529785-0.0630913-0.1054344-0.1265793-0.1550484-0.1921501
		c-0.1074715-0.1420135-0.2084656-0.288826-0.3002625-0.4416351c-0.0360222-0.0599709-0.068409-0.1213837-0.1018333-0.1827164
		c-0.0761261-0.1394539-0.1458931-0.2821884-0.2083435-0.4281998c-0.0303459-0.0709267-0.0590134-0.1422539-0.0859604-0.214222
		c-0.0617714-0.1652832-0.1161461-0.333046-0.1595268-0.5037651c-0.010994-0.0430222-0.022789-0.0857239-0.0325851-0.1289024
		c-0.0425377-0.1896706-0.0712471-0.3817444-0.0896759-0.5749321c-0.0054779-0.0563736-0.0095558-0.112751-0.0128746-0.1691246
		c-0.0121536-0.211422-0.0150337-0.4235611,0.0038376-0.6352234c0-0.0000801,0-0.0002403,0-0.0004005
		c0.1736794-1.9063187,2.0572891-3.8970757,3.9524117-4.1766281c0.0147934-0.0022392,0.030426-0.0017586,0.0452576-0.0038376
		c0.2011871-0.0271873,0.4066505-0.0371819,0.6142349-0.0334244c0.0474586,0.0006409,0.0952377,0.0035973,0.1429749,0.0057564
		c1.6903763,0.0858803,3.4829865,1.1314774,4.1792259,2.5487404C49.8995514,48.8224792,49.5393982,51.0825539,48.1921806,52.4643135
		z"></path>
  <path fill="#010101" d="M40.8518982,30.9613075c-1.8116417-3.687252-6.7162514-6.1808186-10.9350986-5.5558281
		c-4.2521114,0.62883-8.3187084,4.927639-8.7025318,9.1995811c-0.3799839,4.2246056,2.1410904,8.5777893,5.9946651,10.3510513
		c1.3171501,0.6057968,2.7619228,0.8975029,4.2114906,0.8975029c2.791029,0,5.5999699-1.0811005,7.5488262-3.0801735
		C41.9301186,39.7367668,42.7217522,34.7688255,40.8518982,30.9613075z M26.4105835,36.4230995
		c0.0601311,0.2641983-0.1058712,0.5277557-0.3703899,0.5878868c-0.0364628,0.008316-0.073246,0.0121574-0.1090679,0.0121574
		c-0.2245369,0-0.4270039-0.154808-0.4788189-0.3825455c-0.512722-2.2568741,0.4257221-4.798418,2.2821426-6.1808186
		c1.856102-1.3830395,4.56077-1.5544796,6.5755177-0.4164467c0.2363701,0.1336975,0.3198509,0.4330807,0.1864738,0.6697712
		c-0.1336975,0.2366886-0.4327621,0.3198509-0.6694527,0.1861534c-1.6872177-0.9525204-3.9517689-0.8085861-5.5056095,0.3486385
		C26.7668972,32.4051208,25.9813423,34.5334167,26.4105835,36.4230995z M36.4692879,32.052002
		c-0.0965958,0.1004333-0.2251778,0.1509705-0.3540764,0.1509705c-0.1225052,0-0.245327-0.0454178-0.3406448-0.1375351
		l-0.3035393-0.2910652c-0.1954269-0.1880722-0.2015038-0.49897-0.0134315-0.6940784
		c0.1887131-0.1957493,0.4996071-0.2021465,0.6947174-0.0134335l0.3035393,0.2910652
		C36.6512833,31.5459976,36.6573601,31.8568935,36.4692879,32.052002z"></path>
  <path fill="#010101" d="M63.4878197 23.2605534c-.9960175-2.0278625-3.6885338-3.3961887-6.008419-3.0565052-.1536484.0227089-.3066978.0551739-.4589081.0947552C52.9752464 13.8572254 45.4424133 8.7962885 37.181118 6.9682546c.0534134-.9585962-.1089096-1.926548-.5317535-2.7875094-.9960213-2.0285013-3.6901321-3.3974676-6.008419-3.0571451-2.338438.3460798-4.5748425 2.7110651-4.7862644 5.0600576-.0154343.1716008-.0194721.3436012-.0178318.5154414C14.1656113 9.0340986 3.1148064 21.1076298 2.0663316 32.7831841c-.6656117 7.429203 1.7675021 15.1629028 6.6727114 21.2849503-.4794188.7330971-.7997103 1.5470428-.8728361 2.3610649-.2088633 2.3227654 1.1767349 4.7152557 3.2951145 5.6895256.7241449.3332863 1.5186567.4932137 2.3154087.4932137 1.3327427 0 2.6716423-.4490738 3.7028847-1.2870865.6606159.3740692 1.3360233.7265434 2.0186272 1.0395203 3.7646561 1.731041 7.8936253 2.5639343 12.0366669 2.5639343 7.9764671 0 16.0044327-3.0878525 21.5746536-8.7984886.0003204 0 .0003204 0 .0003204 0 6.2325134-6.3997574 9.2618332-16.030899 7.9695091-25.2216053.6222725-.2813091 1.1964073-.6643314 1.6737061-1.154026C64.0805054 28.0845604 64.5155029 25.3536644 63.4878197 23.2605534zM59.8431091 31.2472553c1.1783333 8.8343105-1.7582283 18.0582027-7.7369003 24.1967983-8.183094 8.3884392-21.8506851 10.923584-32.4979172 6.0272903-.5744534-.2635574-1.1460285-.552063-1.7054501-.8604012.0514164-.0619698.0908375-.132576.1393356-.1968689.0797634-.1054688.1566868-.2115822.2284927-.3226509.0816822-.1262589.1555691-.2561188.2268162-.3886986.0626907-.1165848.1242218-.2323723.1787567-.3531952.0619316-.1372185.1143475-.2773132.1656437-.4190865.0451794-.1249046.0910778-.2482071.127861-.3758278.0419407-.1454506.0723667-.2928238.1033115-.4410744.0270271-.1296196.0567341-.2576408.075285-.3887825.0213509-.1510468.0293064-.3024979.0391827-.4546661.0085163-.1309013.0218296-.2606812.0217896-.391819-.0000401-.15625-.0157928-.3108978-.0281868-.466507-.0100346-.126339-.0129948-.2526817-.0312653-.377903-.024189-.1661644-.0669689-.3280106-.1058311-.4911346-.0265083-.1113052-.0434608-.224453-.0768452-.3337631-.0672092-.2202187-.1559677-.4331589-.2515221-.6432228-.0208321-.0457382-.0325851-.0949173-.0547752-.1400948-.1248226-.2539635-.2763519-.4975319-.4503918-.7287827-.7958717-1.0589523-2.064724-1.8556213-3.4160585-2.196106-.7107515-.1795959-1.4434919-.2346878-2.1416492-.1316185-.1473713.0217514-.2942638.0517387-.4403563.0890808-.8379717.2115822-1.6619501.6770439-2.3724213 1.321949-.0167522.0151901-.0340242.029583-.0506563.044857-.0800037.0741272-.1572475.1516914-.2340117.2303734-.0487375.0494957-.0973549.098835-.1445332.1499329-.0197916.0216675-.0412617.0411797-.060812.0630875-4.647449-5.8955078-6.9411073-13.2949638-6.3049216-20.3969574C4.055171 21.6216316 14.6790533 9.9822197 25.9260082 7.6767268c.0124741.0664492.0344639.1302595.0492554.1960692.0103569.045579.0225906.090518.0340652.1357775.0626106.2498035.1407356.4940109.2354107.73246.0011597.0030394.0021992.0059977.0033989.008956.157526.3950176.3566341.7698841.5933247 1.1210814.0141945.0211105.0284672.0422201.0429001.0632505.1284618.1854343.2667179.3624725.4151287.5317545.0381012.0438995.0744057.0893183.1137466.1320181.0652103.0700483.1330185.136817.2015076.2035866.0893574.0877991.1817551.1719999.2765522.2537222.0456581.0391016.0890789.0803623.1359768.1179457.1498108.1209841.3071766.2316523.4687824.3361645.0378628.0244684.0760841.0478172.1145878.0713263.1745186.1066713.3529968.2071848.5394688.292985.236412.1085892.4820576.192071.7309818.2643576.0646915.0187111.129221.0355835.1945896.0519762.2240582.0561333.450552.1004333.6801262.1285.0300255.0036783.0593319.0106354.0894394.013834.2056236.0219097.4124489.0339041.6196327.0339041.0491371 0 .0981541-.0059175.1472912-.0070372.0666485-.0016785.1324196-.0057573.198988-.0095949.2260571-.013114.4510708-.0371027.6744061-.0754051.0350647-.0059977.0703697-.0085564.1053543-.015193.2462845-.0467787.4879723-.1129875.7264214-.1897526.0681686-.0219898.1348991-.0457382.2021866-.0701275.2161026-.0782833.4279633-.1662426.6330261-.2689953.0260696-.0130339.0533791-.0229492.0792046-.0363836.2212982-.1151466.431282-.2495642.635067-.3928576.058651-.0412607.1157074-.0835619.1726799-.1270618.1939507-.1482506.3809052-.3054581.5529022-.4798574.0073166-.0074368.0162354-.0129538.02351-.0203905.1905937-.1968689.363472-.4110098.5226402-.6358662.0549316-.0775633.0991135-.1615248.149929-.241888.0982361-.1550474.1944313-.3106556.2775116-.4753799.0453796-.0902777.0821228-.1839142.1227417-.2765112.0724869-.1645641.141098-.3300877.1983109-.501688.0332222-.0998735.0596924-.2008667.087677-.3023405.0275879-.1005135.0646515-.197588.0869217-.2997808 7.9013023 1.7726192 15.1030884 6.5838327 19.0235138 12.7019596-.0480995.0234299-.0928764.0554943-.1404533.0804443-.1302605.0682068-.2582436.1416931-.3843842.220377-.0570145.0358238-.1150246.0682087-.1710396.1060314-.1732788.1163464-.3398819.244606-.5024872.3788643-.0398636.0332642-.0789642.0664501-.1181068.1005936-.9329262.8083458-1.6525955 1.8904839-1.9451408 3.0205212-.0049171.0188713-.0091553.0375824-.0138321.0563736-.0537758.2187004-.0967941.4385185-.1165848.6586552-.0432625.4812984-.0145531.9649944.0714455 1.4390144.3260078 1.8142014 1.5404854 3.4790306 3.2214279 4.251152.1758003.0809231.3569565.1488914.54039.2102222.0199928.0066376.0402641.0119152.0602913.0183125.1679649.053894.3384438.0991535.5112038.1367359.0147934.0031986.0294685.006237.0442619.0092754.7483711.1564083 1.532608.1613655 2.301693.0087967.0099564-.0019188.0197105-.004797.0296288-.0067177C59.5970612 31.3057098 59.7206421 31.2805214 59.8431091 31.2472553zM61.749424 29.0684242c-.469902.4818573-1.0533104.8381729-1.6837006 1.0743828-.1096268.0419006-.2210579.0755653-.3324471.1095505-.1179428.0348625-.2366104.067009-.3568726.0931568-.0659714.0147915-.1315384.0323849-.1977882.0445385-.2094231.0367832-.4210052.0607719-.6332283.0706882-.0301857.0015984-.0602913.0015984-.090477.0025578-.4534721.0127945-.9072189-.0356636-1.344059-.1508102-.0240288-.0063972-.0478554-.0134335-.0717278-.0201511-.2183762-.061491-.4330788-.1365757-.6398621-.2317314-1.3812408-.6349068-2.3745003-2.000515-2.6542931-3.4901447-.0747223-.4019737-.1083069-.8113842-.0705261-1.2199955.0181503-.2040653.0571327-.4106903.1146278-.6172352.0000381-.0001583.0001183-.0003986.0001602-.0005589.2842293-1.0203285 1.0232048-2.0360184 1.9462166-2.725378.0223122-.016552.0444221-.033186.0669327-.0493374.1607246-.116106.3272057-.2206974.4972076-.315134.0431404-.0237503.0868416-.04566.1304588-.0678883.1646461-.0846024.3318481-.1608868.5018883-.2218189.2282562-.0819607.4596672-.1424923.6913986-.1767178.1912727-.0281467.3860626-.0422192.5834122-.0422192 1.7553482 0 3.6728592 1.0810986 4.398922 2.5600948C63.4564743 25.425951 63.0963211 27.6866646 61.749424 29.0684242zM42.1632919 5.0718522c4.3586235 1.4278193 8.3842773 3.8887601 11.6413307 7.1167064.0956345.0953159.2206993.1426535.3457603.1426535.1263428 0 .2530022-.0486174.3489571-.1452131.1909523-.1931906.1896744-.5040865-.0031967-.6947184-3.3648453-3.3354158-7.52388-5.8782387-12.0270729-7.3533959-.2587624-.0844407-.5354347.056294-.619873.3140945C41.7647552 4.7097802 41.9054909 4.9874115 42.1632919 5.0718522zM56.3346519 13.3265915c-.2421303-.1221838-.5376701-.025588-.6598549.2174988-.1218643.2424479-.0246277.5379915.2178192.6601753l.253643.1266613c.0703659.034544.1445732.0511761.2181396.0511761.1807137 0 .3547134-.0997944.4404335-.2731533.1205864-.2430878.021431-.5373516-.2216568-.6582556L56.3346519 13.3265915z"></path>
</svg>
